<svg xmlns="http://www.w3.org/2000/svg" xmlns:xlink="http://www.w3.org/1999/xlink" version="1.1" x="0px" y="0px" viewBox="0 0 512 640" enable-background="new 0 0 512 512" xml:space="preserve"><path d="M446.417,286.387c-10.65-13.984-24.245-25.608-39.572-34.041c17.239-18.321,27.288-43.898,27.288-71.584  c0-53.304-37.902-96.883-85.141-98.8c-20.586-33.768-55.142-55.967-94.228-55.967c-39.096,0-73.659,22.212-94.244,55.995  c-46.93,2.293-84.48,45.716-84.48,98.772c0,18.808,4.734,37.103,13.691,52.907c4.038,7.125,8.843,13.6,14.283,19.296  c-15.062,8.494-28.402,20.087-38.845,33.958c-16.445,21.845-25.139,47.878-25.139,75.288v52.9c0,8.284,6.716,15,15,15h36.916v40.894  c0,8.284,6.716,15,15,15h298.105c8.284,0,15-6.716,15-15v-40.894h36.916c8.283,0,15-6.716,15-15v-52.9  C471.969,334.557,463.133,308.337,446.417,286.387z M91.947,399.522v0.589H70.031v-37.9c0-42.259,27.144-78.906,67.542-91.192  c5.796-1.763,9.962-6.838,10.563-12.866c0.6-6.027-2.485-11.824-7.819-14.694c-20.822-11.203-34.276-35.813-34.276-62.696  c0-30.371,16.754-56.196,39.929-65.324c-3.479,12.274-5.364,25.34-5.364,38.894c0,24.506,6.16,48.329,17.816,68.895  c6.384,11.263,14.24,21.264,23.259,29.712c-0.03,0.134-0.063,0.268-0.092,0.403c-22.122,11.325-41.718,27.672-56.731,47.614  C103.327,329.553,91.947,363.637,91.947,399.522z M390.053,456.005H121.947v-56.482c0-59.44,38.179-110.987,95.004-128.269  c5.796-1.763,9.962-6.838,10.563-12.866c0.6-6.028-2.485-11.825-7.819-14.695c-29.821-16.045-49.09-51.121-49.09-89.361  c0-54.223,37.754-98.337,84.16-98.337c46.407,0,84.162,44.114,84.162,98.337c0,37.852-18.98,72.78-48.354,88.983  c-5.307,2.927-8.33,8.758-7.665,14.781c0.665,6.023,4.89,11.055,10.706,12.752c56.782,16.574,96.439,69.487,96.439,128.675V456.005z   M441.969,400.111h-21.916v-0.589c0-36.207-11.566-70.533-33.449-99.268c-15.275-20.058-35.175-36.398-57.614-47.607  c-0.056-0.2-0.124-0.395-0.188-0.591c8.765-8.394,16.4-18.266,22.607-29.341c11.461-20.446,17.519-44.092,17.519-68.384  c0-13.654-1.914-26.814-5.444-39.167c23.548,8.874,40.65,34.914,40.65,65.598c0,26.613-13.254,51.121-33.768,62.436  c-5.307,2.927-8.33,8.759-7.664,14.782c0.665,6.022,4.889,11.053,10.706,12.752c40.368,11.781,68.562,49.4,68.562,91.479V400.111z"/><path d="M258.252,340.106c-15.764-1.001-23.02-5.505-23.02-13.512c0-7.756,8.007-12.261,22.519-12.261  c11.761,0,21.769,2.753,30.525,11.011l17.015-20.018c-11.119-9.753-22.4-14.169-35.957-15.647v-16.396h-26.668v17.156  c-18.907,3.579-37.458,14.547-37.458,37.156c0,28.023,27.773,36.53,51.042,38.282c17.515,1,24.521,4.503,24.521,13.01  c0,9.008-10.759,15.013-22.269,14.763c-13.762-0.25-33.778-7.507-42.535-17.265l-15.013,21.768  c13.288,13.843,27.394,19.239,41.712,21.12v16.68h26.668v-16.496c27.741-3.599,41.712-20.522,41.712-39.818  C311.046,346.861,281.521,341.607,258.252,340.106z"/><text x="0" y="527" fill="#000000" font-size="5px" font-weight="bold" font-family="'Helvetica Neue', Helvetica, Arial-Unicode, Arial, Sans-serif">Created by Chanut is Industries</text><text x="0" y="532" fill="#000000" font-size="5px" font-weight="bold" font-family="'Helvetica Neue', Helvetica, Arial-Unicode, Arial, Sans-serif">from the Noun Project</text></svg>